<?xml version="1.0" encoding="UTF-8"?>
<svg id="Layer_1" xmlns="http://www.w3.org/2000/svg" version="1.1" viewBox="0 0 3000 3000">
  <!-- Generator: Adobe Illustrator 29.6.1, SVG Export Plug-In . SVG Version: 2.1.1 Build 9)  -->
  <defs>
    <style>
      .st0 {
        fill: none;
      }

      .st0, .st1 {
        display: none;
      }

      .st2 {
        fill: #d4dcea;
      }

      .st3 {
        fill: #d6ddeb;
      }
    </style>
  </defs>
  <path class="st2" d="M2428.65,1278.33c3.22,0,3.22-5,0-5s-3.22,5,0,5h0Z"/>
  <g class="st1">
    <path class="st2" d="M1337.73,1181.64c-4.79,6.5-8.69,13.58-11.69,21.08-.74,1.85-2.07,4.23-1.66,6.28.43,2.15,2.32,3.15,4.31,3.56,4.01.84,8.15.38,12.03-.86,7.54-2.41,14.48-7.05,20.57-12.01,5.94-4.84,11.91-10.7,15.37-17.64.95-1.89,2.36-4.46,1.77-6.65-.67-2.48-3.36-3.14-5.6-3.26-4.68-.25-8.96,2.55-12.58,5.18-1.09.79-1.63,2.17-.9,3.42.63,1.08,2.32,1.69,3.42.9,1.91-1.39,3.91-2.83,6.11-3.73.92-.38,1.92-.67,2.91-.75.51-.04,1.04-.04,1.54.04.22.03.45.09.66.16.38.12-.38-.48.1.12l-.64-1.1c.3.72-.75,2.44-1.11,3.16-.63,1.26-1.36,2.48-2.15,3.65-1.55,2.3-3.4,4.39-5.31,6.4-3.83,4-8.08,7.59-12.69,10.67s-9.92,6.18-15.56,7.37c-1.2.25-2.4.39-3.63.39-.71,0-1.44-.02-2.15-.11-.31-.04-1.7-.51-1.82-.39h-.02c-.27.06-.17.29.32.68.03,0,.24-.71.28-.82.24-.7.5-1.39.77-2.08.51-1.32,1.04-2.62,1.62-3.91,2.72-6.08,6.1-11.85,10.05-17.21.8-1.09.18-2.79-.9-3.42-1.27-.74-2.62-.19-3.42.9h0Z"/>
  </g>
  <path class="st0" d="M1829.24,1165.58c-12.26-.26-24.52-.53-36.78-.79,26.92-6.11,53.05-15.67,77.56-28.36-29.16,18.36-57.99,37.23-86.5,56.59,30.32-19.07,59.05-40.68,85.79-64.52-7.99-.69-15.49,3.6-22.28,7.87-16.66,10.47-32.83,21.72-48.44,33.72"/>
  <g class="st1">
    <path class="st3" d="M1530.86,1511.58c65.59,0,116.46-38,133.62-97.46h-137.92v-71.72h237.22v239.67h-77.23l-6.74-57.62c-40.46,42.91-95.01,66.81-159.37,66.81-128.11,0-223.73-95.62-223.73-223.12s96.23-224.34,229.25-224.34c109.72,0,195.53,62.52,223.12,161.21h-85.81c-23.29-50.88-73.56-82.14-137.92-82.14-83.36,0-142.82,60.07-142.82,145.27s61.91,143.43,148.34,143.43Z"/>
    <path class="st3" d="M1982,1509.13c61.91,0,110.33-28.81,134.24-75.39h90.72c-26.36,96.24-114.62,157.53-224.96,157.53-134.24,0-235.38-95.62-235.38-223.12s100.53-224.34,235.38-224.34c110.33,0,197.99,61.3,224.96,157.53h-90.72c-23.29-47.2-71.72-75.39-134.24-75.39-87.65,0-149.56,57.62-149.56,142.21s62.52,140.98,149.56,140.98Z"/>
    <path class="st3" d="M410.69,2129.9h-85.81v-429.07h109.11l138.53,326.71,137.92-326.71h109.11v429.07h-85.81v-275.22l-118.3,275.22h-86.43l-118.3-276.45v276.45Z"/>
    <path class="st3" d="M998.51,1700.83h95.62l216.38,429.07h-95.62l-50.88-101.14h-234.76l-50.88,101.14h-95.01l215.15-429.07ZM1124.17,1950.3l-77.85-154.47-77.85,154.47h155.69Z"/>
    <path class="st3" d="M1475.39,2004.85h-116.46v125.04h-85.81v-429.07h220.67c91.94,0,167.95,60.68,167.95,152.01,0,60.07-39.23,110.33-92.56,135.46l107.88,141.59h-106.66l-95.01-125.04ZM1493.78,1779.9h-134.85v144.66h134.85c47.2,0,82.14-31.26,82.14-71.72s-34.33-72.94-82.14-72.94Z"/>
    <path class="st3" d="M1734.66,2129.9h-85.81v-429.07h85.81v175.31h49.04l167.34-175.31h116.46l-203.5,214.54,219.44,214.54h-119.53l-182.05-175.31h-47.2v175.31Z"/>
    <path class="st3" d="M2056.46,1700.83h354.29v79.07h-268.48v95.62h258.67v79.07h-258.67v95.62h268.48v79.68h-354.29v-429.07Z"/>
    <path class="st3" d="M2539.47,1779.9h-152.01v-79.07h388.62v79.07h-150.79v350h-85.81v-350Z"/>
  </g>
  <path class="st2" d="M751.56,750.4c-264.44,179.01-244.75,880.12,104.83,1290.86,50.63,59.48,242.98,278.87,566.92,335.17,101.49,17.64,348.29,60.53,536.38-80.88,330.23-248.28,193.29-849.52,15.7-1092.2-65.53-89.54-119.79-107.31-153.7-110.99-117.09-12.73-261.13,97.2-277.1,217.15-8.57,64.38,22.05,114.28,277.1,439.71,133.46,170.29,182.5,229.89,162.61,287.71-11.37,33.06-51.39,83.34-238.86,108.57-101.74,13.69-764.4,102.88-922.85-244.28-97.84-214.36,8.42-569.06,180.63-725.37,27.04-24.54,94.89-79.77,127.43-176.35,3.46-10.26,54.08-166.76-20.8-249.09-74.37-81.77-254.33-70.37-358.29,0Z"/>
  <ellipse class="st2" cx="1559.88" cy="733.25" rx="237" ry="190"/>
</svg>