<?xml version="1.0" encoding="utf-8"?>
<!-- Generator: Adobe Illustrator 25.0.1, SVG Export Plug-In . SVG Version: 6.00 Build 0)  -->
<svg version="1.1" id="Слой_1" xmlns="http://www.w3.org/2000/svg" xmlns:xlink="http://www.w3.org/1999/xlink" x="0px" y="0px"
	 viewBox="0 0 3000 1404.3" style="enable-background:new 0 0 3000 1404.3;" xml:space="preserve">
<style type="text/css">
	.st0{fill:#282D4E;}
</style>
<path class="st0" d="M1361.7,346.6c3.2,0,3.2-5,0-5S1358.5,346.6,1361.7,346.6L1361.7,346.6z"/>
<g>
	<path class="st0" d="M1480.4,680.5c65.6,0,116.5-38,133.6-97.5h-137.9v-71.7h237.2V751h-77.2l-6.7-57.6
		c-40.5,42.9-95,66.8-159.4,66.8c-128.1,0-223.7-95.6-223.7-223.1s96.2-224.3,229.2-224.3c109.7,0,195.5,62.5,223.1,161.2h-85.8
		c-23.3-50.9-73.6-82.1-137.9-82.1c-83.4,0-142.8,60.1-142.8,145.3S1394,680.5,1480.4,680.5L1480.4,680.5z"/>
	<path class="st0" d="M1931.5,678c61.9,0,110.3-28.8,134.2-75.4h90.7c-26.4,96.2-114.6,157.5-225,157.5
		c-134.2,0-235.4-95.6-235.4-223.1s100.5-224.3,235.4-224.3c110.3,0,198,61.3,225,157.5h-90.7c-23.3-47.2-71.7-75.4-134.2-75.4
		c-87.7,0-149.6,57.6-149.6,142.2S1844.5,678,1931.5,678L1931.5,678z"/>
	<path class="st0" d="M360.2,1298.8h-85.8V869.7h109.1L522,1196.4l138-326.7h109.1v429.1h-85.8v-275.2L565,1298.8h-86.4
		l-118.3-276.5L360.2,1298.8L360.2,1298.8z"/>
	<path class="st0" d="M948,869.7h95.6l216.4,429.1h-95.6l-50.9-101.1H878.8l-50.9,101.1h-95L948,869.7L948,869.7z M1073.7,1119.2
		l-77.8-154.5L918,1119.2H1073.7L1073.7,1119.2z"/>
	<path class="st0" d="M1424.9,1173.7h-116.5v125h-85.8v-429h220.7c91.9,0,167.9,60.7,167.9,152c0,60.1-39.2,110.3-92.6,135.5
		l107.9,141.6h-106.7L1424.9,1173.7L1424.9,1173.7z M1443.3,948.8h-134.9v144.7h134.9c47.2,0,82.1-31.3,82.1-71.7
		C1525.4,981.3,1491.1,948.8,1443.3,948.8L1443.3,948.8z"/>
	<path class="st0" d="M1684.2,1298.8h-85.8V869.7h85.8V1045h49l167.3-175.3H2017l-203.5,214.5l219.4,214.5h-119.5l-182.1-175.3
		h-47.2L1684.2,1298.8L1684.2,1298.8z"/>
	<path class="st0" d="M2006,869.7h354.3v79.1h-268.5v95.6h258.7v79.1h-258.7v95.6h268.5v79.7H2006V869.7L2006,869.7z"/>
	<path class="st0" d="M2489,948.8h-152v-79.1h388.6v79.1h-150.8v350H2489V948.8L2489,948.8z"/>
</g>
<path class="st0" d="M739.1,149c-98.2,66.5-90.9,326.8,38.9,479.2c18.8,22.1,90.2,103.5,210.5,124.4c37.7,6.6,129.3,22.5,199.1-30
	c122.6-92.2,71.8-315.4,5.8-405.5c-24.3-33.2-44.5-39.8-57.1-41.2c-43.5-4.7-96.9,36.1-102.9,80.6c-3.2,23.9,8.2,42.4,102.9,163.2
	c49.6,63.2,67.8,85.3,60.4,106.8c-4.2,12.3-19.1,30.9-88.7,40.3c-37.8,5.1-283.8,38.2-342.6-90.7c-36.3-79.6,3.1-211.3,67.1-269.3
	c10-9.1,35.2-29.6,47.3-65.5c1.3-3.8,20.1-61.9-7.7-92.5C844.5,118.6,777.7,122.9,739.1,149L739.1,149z"/>
<ellipse class="st0" cx="1039.2" cy="142.7" rx="88" ry="70.5"/>
</svg>
