<?xml version="1.0" encoding="utf-8"?>
<!-- Generator: Adobe Illustrator 25.0.1, SVG Export Plug-In . SVG Version: 6.00 Build 0)  -->
<svg version="1.1" id="Layer_1" xmlns="http://www.w3.org/2000/svg" xmlns:xlink="http://www.w3.org/1999/xlink" x="0px" y="0px"
	 viewBox="0 0 3000 1404.3" style="enable-background:new 0 0 3000 1404.3;" xml:space="preserve">
<style type="text/css">
	.st0{fill:#272D4E;}
	.st1{display:none;}
	.st2{display:inline;fill:#D4DCEA;}
	.st3{display:none;fill:none;}
	.st4{fill:#FEEEED;}
</style>
<path class="st0" d="M-1658.3,346.6c3.2,0,3.2-5,0-5S-1661.5,346.6-1658.3,346.6L-1658.3,346.6z"/>
<g class="st1">
	<path class="st2" d="M-1682.3,1181.6c-4.8,6.5-8.7,13.6-11.7,21.1c-0.7,1.8-2.1,4.2-1.7,6.3c0.4,2.2,2.3,3.2,4.3,3.6
		c4,0.8,8.2,0.4,12-0.9c7.5-2.4,14.5-7.1,20.6-12c5.9-4.8,11.9-10.7,15.4-17.6c0.9-1.9,2.4-4.5,1.8-6.7c-0.7-2.5-3.4-3.1-5.6-3.3
		c-4.7-0.2-9,2.6-12.6,5.2c-1.1,0.8-1.6,2.2-0.9,3.4c0.6,1.1,2.3,1.7,3.4,0.9c1.9-1.4,3.9-2.8,6.1-3.7c0.9-0.4,1.9-0.7,2.9-0.8
		c0.5,0,1,0,1.5,0c0.2,0,0.4,0.1,0.7,0.2c0.4,0.1-0.4-0.5,0.1,0.1l-0.6-1.1c0.3,0.7-0.8,2.4-1.1,3.2c-0.6,1.3-1.4,2.5-2.2,3.7
		c-1.6,2.3-3.4,4.4-5.3,6.4c-3.8,4-8.1,7.6-12.7,10.7s-9.9,6.2-15.6,7.4c-1.2,0.2-2.4,0.4-3.6,0.4c-0.7,0-1.4,0-2.2-0.1
		c-0.3,0-1.7-0.5-1.8-0.4h0c-0.3,0.1-0.2,0.3,0.3,0.7c0,0,0.2-0.7,0.3-0.8c0.2-0.7,0.5-1.4,0.8-2.1c0.5-1.3,1-2.6,1.6-3.9
		c2.7-6.1,6.1-11.8,10.1-17.2c0.8-1.1,0.2-2.8-0.9-3.4C-1680.1,1180-1681.5,1180.6-1682.3,1181.6L-1682.3,1181.6L-1682.3,1181.6z"/>
</g>
<path class="st3" d="M-1190.8,1165.6c-12.3-0.3-24.5-0.5-36.8-0.8c26.9-6.1,53.1-15.7,77.6-28.4c-29.2,18.4-58,37.2-86.5,56.6
	c30.3-19.1,59.1-40.7,85.8-64.5c-8-0.7-15.5,3.6-22.3,7.9c-16.7,10.5-32.8,21.7-48.4,33.7"/>
<g>
	<path class="st0" d="M-1539.6,680.5c65.6,0,116.5-38,133.6-97.5h-137.9v-71.7h237.2V751h-77.2l-6.7-57.6
		c-40.5,42.9-95,66.8-159.4,66.8c-128.1,0-223.7-95.6-223.7-223.1s96.2-224.3,229.2-224.3c109.7,0,195.5,62.5,223.1,161.2h-85.8
		c-23.3-50.9-73.6-82.1-137.9-82.1c-83.4,0-142.8,60.1-142.8,145.3S-1626,680.5-1539.6,680.5L-1539.6,680.5z"/>
	<path class="st0" d="M-1088.5,678c61.9,0,110.3-28.8,134.2-75.4h90.7c-26.4,96.2-114.6,157.5-225,157.5
		c-134.2,0-235.4-95.6-235.4-223.1s100.5-224.3,235.4-224.3c110.3,0,198,61.3,225,157.5h-90.7c-23.3-47.2-71.7-75.4-134.2-75.4
		c-87.7,0-149.6,57.6-149.6,142.2S-1175.5,678-1088.5,678L-1088.5,678z"/>
	<path class="st0" d="M-2659.8,1298.8h-85.8V869.7h109.1l138.5,326.7l137.9-326.7h109.1v429.1h-85.8v-275.2l-118.3,275.2h-86.4
		l-118.3-276.5L-2659.8,1298.8L-2659.8,1298.8z"/>
	<path class="st0" d="M-2072,869.7h95.6l216.4,429.1h-95.6l-50.9-101.1h-234.8l-50.9,101.1h-95L-2072,869.7L-2072,869.7z
		 M-1946.3,1119.2l-77.8-154.5l-77.9,154.5H-1946.3L-1946.3,1119.2z"/>
	<path class="st0" d="M-1595.1,1173.7h-116.5v125h-85.8V869.7h220.7c91.9,0,167.9,60.7,167.9,152c0,60.1-39.2,110.3-92.6,135.5
		l107.9,141.6h-106.7L-1595.1,1173.7L-1595.1,1173.7z M-1576.7,948.8h-134.9v144.7h134.9c47.2,0,82.1-31.3,82.1-71.7
		C-1494.6,981.3-1528.9,948.8-1576.7,948.8L-1576.7,948.8z"/>
	<path class="st0" d="M-1335.8,1298.8h-85.8V869.7h85.8V1045h49l167.3-175.3h116.5l-203.5,214.5l219.4,214.5h-119.5l-182.1-175.3
		h-47.2L-1335.8,1298.8L-1335.8,1298.8z"/>
	<path class="st0" d="M-1014,869.7h354.3v79.1h-268.5v95.6h258.7v79.1h-258.7v95.6h268.5v79.7H-1014V869.7L-1014,869.7z"/>
	<path class="st0" d="M-531,948.8h-152v-79.1h388.6v79.1h-150.8v350H-531L-531,948.8L-531,948.8z"/>
</g>
<path class="st0" d="M-2280.9,149c-98.2,66.5-90.9,326.8,38.9,479.2c18.8,22.1,90.2,103.5,210.5,124.4c37.7,6.6,129.3,22.5,199.1-30
	c122.6-92.2,71.8-315.4,5.8-405.5c-24.3-33.2-44.5-39.8-57.1-41.2c-43.5-4.7-96.9,36.1-102.9,80.6c-3.2,23.9,8.2,42.4,102.9,163.2
	c49.6,63.2,67.8,85.3,60.4,106.8c-4.2,12.3-19.1,30.9-88.7,40.3c-37.8,5.1-283.8,38.2-342.6-90.7c-36.3-79.6,3.1-211.3,67.1-269.3
	c10-9.1,35.2-29.6,47.3-65.5c1.3-3.8,20.1-61.9-7.7-92.5C-2175.5,118.6-2242.3,122.9-2280.9,149L-2280.9,149z"/>
<ellipse class="st0" cx="-1980.8" cy="142.7" rx="88" ry="70.5"/>
<path class="st4" d="M1361.7,346.6c3.2,0,3.2-5,0-5S1358.5,346.6,1361.7,346.6L1361.7,346.6z"/>
<g>
	<path class="st4" d="M1480.4,680.5c65.6,0,116.5-38,133.6-97.5h-137.9v-71.7h237.2V751h-77.2l-6.7-57.6
		c-40.5,42.9-95,66.8-159.4,66.8c-128.1,0-223.7-95.6-223.7-223.1s96.2-224.3,229.2-224.3c109.7,0,195.5,62.5,223.1,161.2h-85.8
		c-23.3-50.9-73.6-82.1-137.9-82.1c-83.4,0-142.8,60.1-142.8,145.3S1394,680.5,1480.4,680.5L1480.4,680.5z"/>
	<path class="st4" d="M1931.5,678c61.9,0,110.3-28.8,134.2-75.4h90.7c-26.4,96.2-114.6,157.5-225,157.5
		c-134.2,0-235.4-95.6-235.4-223.1s100.5-224.3,235.4-224.3c110.3,0,198,61.3,225,157.5h-90.7c-23.3-47.2-71.7-75.4-134.2-75.4
		c-87.7,0-149.6,57.6-149.6,142.2S1844.5,678,1931.5,678L1931.5,678z"/>
	<path class="st4" d="M360.2,1298.8h-85.8V869.7h109.1L522,1196.4L660,869.7h109.1v429.1h-85.8v-275.2L565,1298.8h-86.4
		l-118.3-276.5L360.2,1298.8L360.2,1298.8z"/>
	<path class="st4" d="M948,869.7h95.6l216.4,429.1h-95.6l-50.9-101.1H878.8l-50.9,101.1h-95L948,869.7L948,869.7z M1073.7,1119.2
		l-77.8-154.5L918,1119.2H1073.7L1073.7,1119.2z"/>
	<path class="st4" d="M1424.9,1173.7h-116.5v125h-85.8V869.7h220.7c91.9,0,167.9,60.7,167.9,152c0,60.1-39.2,110.3-92.6,135.5
		l107.9,141.6h-106.7L1424.9,1173.7L1424.9,1173.7z M1443.3,948.8h-134.9v144.7h134.9c47.2,0,82.1-31.3,82.1-71.7
		C1525.4,981.3,1491.1,948.8,1443.3,948.8L1443.3,948.8z"/>
	<path class="st4" d="M1684.2,1298.8h-85.8V869.7h85.8V1045h49l167.3-175.3H2017l-203.5,214.5l219.4,214.5h-119.5l-182.1-175.3
		h-47.2L1684.2,1298.8L1684.2,1298.8z"/>
	<path class="st4" d="M2006,869.7h354.3v79.1h-268.5v95.6h258.7v79.1h-258.7v95.6h268.5v79.7H2006V869.7L2006,869.7z"/>
	<path class="st4" d="M2489,948.8h-152v-79.1h388.6v79.1h-150.8v350H2489L2489,948.8L2489,948.8z"/>
</g>
<path class="st4" d="M739.1,149c-98.2,66.5-90.9,326.8,38.9,479.2c18.8,22.1,90.2,103.5,210.5,124.4c37.7,6.6,129.3,22.5,199.1-30
	c122.6-92.2,71.8-315.4,5.8-405.5c-24.3-33.2-44.5-39.8-57.1-41.2c-43.5-4.7-96.9,36.1-102.9,80.6c-3.2,23.9,8.2,42.4,102.9,163.2
	c49.6,63.2,67.8,85.3,60.4,106.8c-4.2,12.3-19.1,30.9-88.7,40.3c-37.8,5.1-283.8,38.2-342.6-90.7c-36.3-79.6,3.1-211.3,67.1-269.3
	c10-9.1,35.2-29.6,47.3-65.5c1.3-3.8,20.1-61.9-7.7-92.5C844.5,118.6,777.7,122.9,739.1,149L739.1,149z"/>
<ellipse class="st4" cx="1039.2" cy="142.7" rx="88" ry="70.5"/>
</svg>
